<svg version="1" xmlns="http://www.w3.org/2000/svg" width="465.333" height="465.333" viewBox="0 0 349.000000 349.000000"><path d="M163 8.3c-2.5.7-7.3 2.9-10.6 5-3.4 2-6.5 3.7-6.9 3.7-.4 0-2.7 1.3-5.2 3-2.4 1.6-4.6 3-4.8 3-.2 0-3.6 1.9-7.7 4.3-4 2.4-9.5 5.6-12.3 7.2-2.7 1.5-10.2 5.8-16.5 9.5-6.3 3.7-18 10.4-26 15-30.3 17.5-33.6 19.5-37.6 23.2-4.4 4.1-9.7 13.1-11 18.8-1.3 5.7-1.2 139.6.1 146.1.7 3 2.5 7.9 4 10.8 4.5 8.1 9.3 12 28.5 22.8 3 1.7 42.8 24.7 77.5 44.8 5.5 3.2 11.6 6.7 13.5 7.8 1.9 1 5.3 3 7.5 4.2 8.6 5 22.9 6 32.4 2.1 2-.7 13.5-7.1 25.6-14.1 12.1-7 24-13.9 26.4-15.3 2.5-1.4 6.8-3.8 9.5-5.5 2.8-1.6 6.5-3.7 8.1-4.7 2.9-1.6 14.9-8.5 18.4-10.5.9-.6 8.4-4.8 16.5-9.5 8.2-4.7 17.2-10.6 20.1-13.2 5.7-5.2 9.8-12.9 11.2-21.3 1-5.5.9-140.5-.1-144.5-1.3-5.4-6.7-14.7-10.8-18.6-3.5-3.3-24.3-16-54.8-33.2-1.9-1.1-17.7-10.2-35-20.2s-33.5-19-36-20c-5.4-2.1-17.6-2.4-24-.7zm18 64.9c2.1 1.5 6.3 7.4 12 16.8 10.4 17.4 54.6 91.4 56.9 95.2.9 1.5 6 10.2 11.5 19.3 5.4 9.1 10.2 18 10.6 19.9 1.2 5.5-2.8 12.4-8.5 14.6-1.1.4-41.8.7-90.5.6-99.5-.1-91.8.5-95.8-7.7-2.3-4.5-1.6-10 1.7-14.7 1.7-2.5 30.3-50.2 34.9-58.2 4.2-7.5 32.6-54.8 35.8-59.7 1.9-2.9 3.4-5.5 3.4-5.8 0-2 11.9-19.1 14.4-20.6 4.2-2.6 9.6-2.4 13.6.3z"/></svg>